<svg xmlns="http://www.w3.org/2000/svg" width="150" height="145.5" viewBox="0 0 150 145.5">
  <g id="グループ化_1" data-name="グループ化 1" transform="translate(-865 -204)">
    <g id="パス_1" data-name="パス 1" transform="translate(865 201.7)" fill="none">
      <path d="M73,75A72.83,72.83,0,0,0,0,2.3V147.8C40.3,147.7,73,115.2,73,75Z" stroke="none"/>
      <path d="M 6 8.565093994140625 L 6 141.5190734863281 C 40.1440315246582 138.3995513916016 67 109.7259063720703 67 75 C 67 40.23506927490234 40.14274978637695 11.5966796875 6 8.565093994140625 M 0 2.300003051757812 C 40.29999923706055 2.300003051757812 73 34.80000305175781 73 75 C 73 115.2000045776367 40.29999923706055 147.6999969482422 0 147.8000030517578 L 0 2.300003051757812 Z" stroke="none" fill="#232584"/>
    </g>
    <g id="パス_2" data-name="パス 2" transform="translate(865 201.7)" fill="none">
      <path d="M150,75A72.83,72.83,0,0,0,77,2.3V147.8C117.3,147.7,150,115.2,150,75Z" stroke="none"/>
      <path d="M 83 8.565093994140625 L 83 141.5190734863281 C 117.1440277099609 138.3995513916016 144 109.7259063720703 144 75 C 144 40.23506927490234 117.1427536010742 11.5966796875 83 8.565093994140625 M 77 2.300003051757812 C 117.3000030517578 2.300003051757812 150 34.80000305175781 150 75 C 150 115.2000045776367 117.3000030517578 147.6999969482422 77 147.8000030517578 L 77 2.300003051757812 Z" stroke="none" fill="#232584"/>
    </g>
  </g>
</svg>
